<?xml version="1.0" encoding="UTF-8"?>
<svg width="160" height="40" viewBox="0 0 160 40" fill="none" xmlns="http://www.w3.org/2000/svg">
  <!-- Background circle -->
  <circle cx="20" cy="20" r="16" fill="#0f172a"/>
  <!-- "D" letter -->
  <path d="M15 12h6c4.4 0 8 3.6 8 8s-3.6 8-8 8h-6V12zm6 12c2.2 0 4-1.8 4-4s-1.8-4-4-4h-2v8h2z" fill="white"/>
  <!-- "Directory" text -->
  <path d="M45 28V12h12c1.1 0 2 .9 2 2v2c0 1.1-.9 2-2 2h-8v10h-4zm16 0V12h4v16h-4zm8 0V12h12v4h-8v2h8v4h-8v2h8v4h-12z" fill="#0f172a"/>
</svg>